<svg xmlns="http://www.w3.org/2000/svg" xmlns:xlink="http://www.w3.org/1999/xlink" preserveAspectRatio="xMidYMid" width="57" height="55" viewBox="0 0 57 55">
  <defs>
    <style>

      .cls-2 {
        fill: #ffffff;
      }
    </style>
  </defs>
  <path d="M28.500,52.734 C25.569,52.734 22.742,52.323 20.081,51.562 C20.081,51.562 13.404,55.500 13.404,55.500 C13.404,55.500 13.404,48.703 13.404,48.703 C5.364,44.041 -0.000,35.793 -0.000,26.367 C-0.000,11.805 12.760,0.000 28.500,0.000 C44.240,0.000 57.000,11.805 57.000,26.367 C57.000,40.929 44.240,52.734 28.500,52.734 ZM20.041,21.649 C20.041,21.649 26.548,29.390 26.548,29.390 C26.548,29.390 17.438,40.411 17.438,40.411 C17.438,40.411 36.568,31.358 36.568,31.358 C36.568,31.358 30.062,23.486 30.062,23.486 C30.062,23.486 38.911,12.333 38.911,12.333 C38.911,12.333 20.041,21.649 20.041,21.649 Z" id="path-1" class="cls-2" fill-rule="evenodd"/>
</svg>
